<svg xmlns="http://www.w3.org/2000/svg" viewBox="0 0 596.38 171.15"><defs><style>.cls-1,.cls-4{fill:#fff;}.cls-1,.cls-2,.cls-3{fill-rule:evenodd;}.cls-2{fill:#f3a02d;}.cls-3{fill:#eea20d;}.cls-4{stroke:#fff;}</style></defs><title>Asset 1</title><g id="Layer_2" data-name="Layer 2"><g id="Layer_2-2" data-name="Layer 2"><path class="cls-1" d="M108.91,80.16,98.27,77.6c1.06-5.53,3.19-9.79,6.17-12.56,3-2.55,7.45-4,13.2-4,5.32,0,9.37.85,11.92,2.55a14,14,0,0,1,5.54,6.18c1.06,2.55,1.49,7,1.49,13.84v17.88c0,5.11.21,8.94.42,11.49a72.14,72.14,0,0,0,2.13,7.67H127.43c-.21-1.07-.64-2.55-1.06-4.47a11.08,11.08,0,0,1-.43-1.92,23.17,23.17,0,0,1-6.6,5.75,15.47,15.47,0,0,1-7.45,1.91c-4.68,0-8.3-1.48-10.85-4.68-2.77-3.4-4.05-7.45-4.05-12.56a22.9,22.9,0,0,1,1.7-8.73,15.63,15.63,0,0,1,5.11-6,43.66,43.66,0,0,1,9.58-3.62,56.65,56.65,0,0,0,11.5-3.61V81c0-3-.43-4.9-1.7-6.17q-1.61-1.92-6.39-1.92c-2.13,0-3.83.43-4.9,1.49-1.27,1.07-2.13,3-3,5.75Zm16,12.56a47.76,47.76,0,0,1-7.24,2.34c-3.19.85-5.32,1.71-6.39,2.56a7,7,0,0,0-2.34,5.53,8.29,8.29,0,0,0,1.92,5.53,5.15,5.15,0,0,0,4.68,2.35,9.27,9.27,0,0,0,6.18-2.56,10,10,0,0,0,2.76-5.11c.43-1.49.43-3.83.43-7.66v-3Z"/><path class="cls-1" d="M150.85,62.49h11.07v7.88C166,64.19,170.65,61,176,61a12.43,12.43,0,0,1,7.46,2.34,17.06,17.06,0,0,1,5.32,7,20.63,20.63,0,0,1,6.38-7A13.29,13.29,0,0,1,202.37,61a12.79,12.79,0,0,1,8.52,2.77A14.46,14.46,0,0,1,216,71.43c.85,2.34,1.27,6.39,1.27,11.92v37.26H205.35V87.4c0-5.75-.42-9.58-1.27-11.29A5.36,5.36,0,0,0,199,72.92a7,7,0,0,0-4.69,1.92,10.72,10.72,0,0,0-3.19,5.75A53.37,53.37,0,0,0,190,92.72v27.89H178.1V88.67c0-5.53-.21-9.36-.64-10.85A8,8,0,0,0,175.55,74a6.08,6.08,0,0,0-3.62-1.07,7.1,7.1,0,0,0-4.9,1.92,10.89,10.89,0,0,0-3.19,5.53,50,50,0,0,0-1.07,11.92v28.32H150.85V62.49Z"/><path class="cls-1" d="M237.93,80.16,227.07,77.6c1.27-5.53,3.4-9.79,6.38-12.56,3-2.55,7.45-4,13.2-4,5.33,0,9.37.85,11.93,2.55a14,14,0,0,1,5.53,6.18c1.07,2.55,1.49,7,1.49,13.84l-.21,17.88a75.22,75.22,0,0,0,.64,11.49,41.07,41.07,0,0,0,2.13,7.67H256.45c-.43-1.07-.64-2.55-1.28-4.47,0-.85-.21-1.49-.21-1.92a23.44,23.44,0,0,1-6.6,5.75,15.54,15.54,0,0,1-7.46,1.91c-4.68,0-8.3-1.48-11.06-4.68A20,20,0,0,1,226,104.64a22.72,22.72,0,0,1,1.71-8.73,15.54,15.54,0,0,1,5.11-6,36.14,36.14,0,0,1,9.58-3.62,56.72,56.72,0,0,0,11.49-3.61V81c0-3-.64-4.9-1.7-6.17s-3.2-1.92-6.39-1.92c-2.13,0-3.83.43-4.9,1.49-1.27,1.07-2.12,3-3,5.75Zm16,12.56a47.76,47.76,0,0,1-7.24,2.34c-3.19.85-5.53,1.71-6.38,2.56a6.93,6.93,0,0,0-2.34,5.53,9.41,9.41,0,0,0,1.7,5.53,5.73,5.73,0,0,0,4.89,2.35,9.69,9.69,0,0,0,6.18-2.56,12,12,0,0,0,2.77-5.11,55.14,55.14,0,0,0,.42-7.66v-3Z"/><path class="cls-1" d="M323.58,90.8a38.6,38.6,0,0,1,2.77-14.9,26.58,26.58,0,0,1,8.3-11.07A20.58,20.58,0,0,1,346.79,61c6.8,0,12.34,3,16.6,8.73,4.47,5.75,6.6,13,6.6,21.71s-2.13,16-6.6,21.93c-4.47,5.75-10,8.51-16.6,8.51a20,20,0,0,1-11.71-3.61c-3.84-2.34-6.6-6-8.73-10.43-1.92-4.69-2.77-10.44-2.77-17Zm12.13.64c0,6,1.07,10.22,3.2,13.41,2.13,3,4.68,4.48,7.88,4.48,3,0,5.74-1.49,7.87-4.48,2.13-3.19,3-7.66,3-13.41s-.85-10.22-3-13.2-4.9-4.68-7.87-4.68c-3.2,0-5.75,1.7-7.88,4.68s-3.2,7.45-3.2,13.2Z"/><path class="cls-1" d="M419.1,120.61H407.17V91c0-6.39-.21-10.43-.63-12.35A12,12,0,0,0,404,74.41a5.62,5.62,0,0,0-4-1.49,7.55,7.55,0,0,0-5.54,2.13A11.39,11.39,0,0,0,391,80.8c-.63,2.55-1.06,7-1.06,13.41v26.4H378.22V62.49h10.86V71c4.05-6.6,8.94-10,14.9-10a13.68,13.68,0,0,1,7.24,1.91,13,13,0,0,1,4.9,4.69A16.65,16.65,0,0,1,418.46,74a66.66,66.66,0,0,1,.64,10.43v36.19Z"/><polygon class="cls-1" points="426.98 120.61 426.98 109.29 435.78 109.29 435.78 120.61 426.98 120.61 426.98 120.61"/><path class="cls-1" d="M469.37,98.83l7.62,1.3c-.87,6.75-3.05,12.18-6.53,16.1a16,16,0,0,1-12.62,5.65c-6.3,0-11.31-2.6-15.22-7.83-3.92-5.43-5.66-13-5.66-23,0-6.31.65-12,2.39-16.75a21.26,21.26,0,0,1,7.4-10.88,19.4,19.4,0,0,1,11.09-3.7,16.09,16.09,0,0,1,12.19,5c3.26,3.26,5.21,7.83,6.09,13.92l-7.4,1.52A22.23,22.23,0,0,0,464.8,71a8.71,8.71,0,0,0-6.74-2.83c-3.91,0-7,1.74-9.57,5.43-2.39,3.49-3.7,9.36-3.7,17.19,0,8,1.31,13.92,3.7,17.4,2.39,3.7,5.44,5.44,9.14,5.44a10.13,10.13,0,0,0,7.83-3.48c2-2.61,3.26-6.31,3.91-11.31Z"/><path class="cls-1" d="M480.68,90.78c0-10.88,2.4-19.14,7.18-24.36,3.92-4.35,8.7-6.75,14.36-6.75,6.31,0,11.53,2.83,15.66,8,3.92,5.44,5.87,12.84,5.87,22.41,0,7.61-.87,13.48-2.6,18.05a22.07,22.07,0,0,1-7.83,10.22,18.18,18.18,0,0,1-11.1,3.48,18.45,18.45,0,0,1-15.44-7.83c-4.14-5.43-6.1-13-6.1-23.27Zm8.05,0c0,7.61,1.31,13.48,3.92,17.18,2.61,3.92,5.65,5.66,9.57,5.66s7.18-1.74,9.79-5.66c2.61-3.7,3.7-9.57,3.7-17.4,0-7.39-1.09-13-3.7-16.75s-5.87-5.65-9.79-5.65-7,2-9.57,5.65-3.92,9.36-3.92,17Z"/><path class="cls-1" d="M532.89,120.58V61.2h7v8.26a20.45,20.45,0,0,1,5.87-7A12.74,12.74,0,0,1,554,59.67a13.07,13.07,0,0,1,8.26,2.83,14,14,0,0,1,4.57,7.62q5.55-10.46,14.36-10.45a12.23,12.23,0,0,1,10.44,5c2.4,3.26,3.7,8.26,3.7,15v40.89h-7.83V83.17a40.16,40.16,0,0,0-.65-8.7A10.11,10.11,0,0,0,584,70.12a6.84,6.84,0,0,0-4.57-1.53,9.38,9.38,0,0,0-8.05,4.13c-2.17,2.83-3.26,7.18-3.26,13.28v34.58H560.3V81.86c0-4.35-.65-7.83-2-10a6.52,6.52,0,0,0-6.09-3.26,8.71,8.71,0,0,0-6.09,2.18A12.56,12.56,0,0,0,542,77.29q-1.31,4.24-1.31,12.4v30.89Z"/><path class="cls-2" d="M143.05,130.62c-7-4.76-2.31-7.08,3.25-5.44,28.24,8.32,51.61,19.65,78.3,19.95,23.11.26,41.72-6.79,66-11.2,9.23-1.68,9.24,4.1,2.86,7.66C270,154.73,249.27,159.66,223,159.35c-31.69-.38-52.48-10.11-79.94-28.73Zm157.7,8.27c.34-1,2.93-6.49,1.16-7.86-2.43-1.89-5.48-1.71-13.34-1.07-3,.25-8.54,1.83-9.13-1.15-.79-3.94,5.18-5.49,9-6.49,7-1.85,20.55-6.32,25.11-.7,4.73,5.83-9,32.49-15.19,32.49-5.14,0,.67-10.39,2.39-15.22Z"/><path class="cls-1" d="M280.59,119V108.68l16.82-25.11c2.77-4,4.89-7,6.17-8.73a38.33,38.33,0,0,1-5.32.21l-16,.21V62.49h37.26V73.35L302.3,98.89l-6.17,8.52c3.41-.21,5.53-.21,6.17-.21h18.53v13.41h-.36a7,7,0,0,0-1.28-4c-6.11-7.54-24.25-1.55-33.64.93-1.5.39-3.26.85-5,1.44Z"/><polygon class="cls-3" points="39.53 113.94 21.48 107.46 21.48 81.01 39.53 87.16 39.53 113.94"/><polygon class="cls-3" points="42.84 113.94 60.88 107.46 60.88 81.01 42.84 87.16 42.84 113.94"/><polygon class="cls-3" points="23.34 79.04 41.6 73.9 58.53 79.36 41.6 85.1 23.34 79.04"/><polygon class="cls-3" points="18.04 76.99 0 70.52 0 44.07 18.04 50.21 18.04 76.99"/><polygon class="cls-3" points="21.35 76.99 39.4 70.52 39.4 44.07 21.35 50.21 21.35 76.99"/><polygon class="cls-3" points="1.85 42.09 20.12 36.95 37.05 42.41 20.12 48.16 1.85 42.09"/><polygon class="cls-3" points="60.15 76.99 42.1 70.52 42.1 44.07 60.15 50.21 60.15 76.99"/><polygon class="cls-3" points="63.46 76.99 81.5 70.52 81.5 44.07 63.46 50.21 63.46 76.99"/><polygon class="cls-3" points="43.96 42.09 62.22 36.95 79.15 42.41 62.22 48.16 43.96 42.09"/><polygon class="cls-3" points="81.63 40.04 63.59 33.57 63.59 7.12 81.63 13.27 81.63 40.04"/><polygon class="cls-3" points="84.94 40.04 102.98 33.57 102.98 7.12 84.94 13.27 84.94 40.04"/><polygon class="cls-3" points="65.44 5.14 83.7 0 100.64 5.46 83.7 11.21 65.44 5.14"/><polygon class="cls-3" points="123.73 40.04 105.69 33.57 105.69 7.12 123.73 13.27 123.73 40.04"/><polygon class="cls-3" points="127.04 40.04 145.09 33.57 145.09 7.12 127.04 13.27 127.04 40.04"/><polygon class="cls-3" points="107.54 5.14 125.81 0 142.74 5.46 125.81 11.21 107.54 5.14"/><path class="cls-4" d="M355.26,144.05l-7.44,25.88h-3.24l-5.8-19.22-5.32,19.22h-3.3l-7.74-25.88h4l5.64,19.29,5.37-19.29h2.95l5.84,19.35L352,144.05Z"/><path class="cls-4" d="M375.87,162.21l3.75.77a10.52,10.52,0,0,1-4,5.49,11.5,11.5,0,0,1-7,2.18,10.88,10.88,0,0,1-8.57-3.73,16.33,16.33,0,0,1,.13-19.78,10.94,10.94,0,0,1,8.54-3.8,10.31,10.31,0,0,1,8.15,3.5q3.08,3.51,3.16,10.5H361.27q0,5.86,2.46,7.91a7.94,7.94,0,0,0,5.19,2.05Q373.85,167.3,375.87,162.21Zm-.22-7.87a11,11,0,0,0-.72-3.87,6.51,6.51,0,0,0-2.25-2.88,6.16,6.16,0,0,0-3.81-1.19,6.81,6.81,0,0,0-5.07,2.15,8.89,8.89,0,0,0-2.34,5.79Z"/><path class="cls-4" d="M387.29,169.93h-1.94V135h4v13.38q2.76-5,7.62-5a9.4,9.4,0,0,1,7.44,3.51q3,3.51,3,10.21a15.62,15.62,0,0,1-3,9.68,9.21,9.21,0,0,1-7.68,3.91q-5.28,0-8.08-5Zm2.09-10.15c.19,2.66,1,4.59,2.45,5.79a7,7,0,0,0,4.56,1.8,5.81,5.81,0,0,0,5-2.67,12.5,12.5,0,0,0,1.88-7.3,14.56,14.56,0,0,0-1.82-7.86,5.66,5.66,0,0,0-5-2.86,6.34,6.34,0,0,0-4.57,2,8.65,8.65,0,0,0-2.42,5.26Z"/><path class="cls-4" d="M421.56,163.22l3.85-.79q1.27,4.88,8.09,4.87a7.68,7.68,0,0,0,4.26-1.12A3.56,3.56,0,0,0,439.5,163q0-3-4.43-3.86l-5.45-1a10,10,0,0,1-5.1-2.41,6.24,6.24,0,0,1-1.89-4.74,6.85,6.85,0,0,1,2.58-5.44,10.4,10.4,0,0,1,7-2.19q8.43,0,10.39,6.58l-3.68.79q-1.59-4-6.53-4a7.39,7.39,0,0,0-4,1,3.18,3.18,0,0,0-1.57,2.81q0,2.85,4,3.6l5,.92q7.9,1.44,7.91,7.67a6.83,6.83,0,0,1-3,5.76,12.74,12.74,0,0,1-7.83,2.2Q423.75,170.65,421.56,163.22Z"/><path class="cls-4" d="M465.64,162.21l3.75.77a10.52,10.52,0,0,1-4,5.49,11.5,11.5,0,0,1-7,2.18,10.88,10.88,0,0,1-8.57-3.73,16.33,16.33,0,0,1,.13-19.78,11,11,0,0,1,8.54-3.8,10.31,10.31,0,0,1,8.15,3.5q3.07,3.51,3.16,10.5H451q0,5.86,2.46,7.91a7.94,7.94,0,0,0,5.19,2.05Q463.61,167.3,465.64,162.21Zm-.22-7.87a11,11,0,0,0-.72-3.87,6.56,6.56,0,0,0-2.24-2.88,6.2,6.2,0,0,0-3.81-1.19,6.82,6.82,0,0,0-5.08,2.15,8.89,8.89,0,0,0-2.34,5.79Z"/><path class="cls-4" d="M479.15,169.93h-4V144.05h3.53v6q1.88-4.25,3.75-5.5a6.85,6.85,0,0,1,3.85-1.25q.62,0,1.59.09v3.84H487a7.11,7.11,0,0,0-5.52,2.47,10.08,10.08,0,0,0-2.35,6.49Z"/><path class="cls-4" d="M511.92,144.05,503,169.93h-4.17l-9.24-25.88H494l7.18,21,7.13-21Z"/><path class="cls-4" d="M519.93,135v4.47h-4.31V135Zm-.09,9.06v25.88h-4V144.05Z"/><path class="cls-4" d="M542.34,160.87l3.62.64a11.54,11.54,0,0,1-3.4,6.71,10.27,10.27,0,0,1-14.73-1.52,16.22,16.22,0,0,1-2.8-9.64,15.78,15.78,0,0,1,3-9.81,9.55,9.55,0,0,1,8-3.91,9.19,9.19,0,0,1,6.77,2.52,11.36,11.36,0,0,1,3.16,6.53l-3.62.7q-1-6.42-6.19-6.41a5.69,5.69,0,0,0-5.11,2.83,13.44,13.44,0,0,0-1.79,7.33q0,5,1.77,7.71a5.62,5.62,0,0,0,5,2.75Q541,167.3,542.34,160.87Z"/><path class="cls-4" d="M567.74,162.21l3.75.77a10.63,10.63,0,0,1-4,5.49,11.51,11.51,0,0,1-7,2.18,10.87,10.87,0,0,1-8.56-3.73,14.27,14.27,0,0,1-3.28-9.79,14.43,14.43,0,0,1,3.41-10,10.94,10.94,0,0,1,8.54-3.8,10.33,10.33,0,0,1,8.15,3.5q3.08,3.51,3.15,10.5H553.14q0,5.86,2.46,7.91a7.94,7.94,0,0,0,5.19,2.05Q565.71,167.3,567.74,162.21Zm-.22-7.87a11.49,11.49,0,0,0-.72-3.87,6.51,6.51,0,0,0-2.25-2.88,6.16,6.16,0,0,0-3.81-1.19,6.81,6.81,0,0,0-5.07,2.15,8.89,8.89,0,0,0-2.34,5.79Z"/><path class="cls-4" d="M573.72,163.22l3.84-.79q1.29,4.88,8.1,4.87a7.67,7.67,0,0,0,4.25-1.12,3.55,3.55,0,0,0,1.75-3.17q0-3-4.44-3.86l-5.45-1a10,10,0,0,1-5.09-2.41,6.22,6.22,0,0,1-1.9-4.74,6.83,6.83,0,0,1,2.59-5.44,10.4,10.4,0,0,1,7-2.19q8.42,0,10.39,6.58l-3.69.79q-1.59-4-6.52-4a7.36,7.36,0,0,0-4,1,3.16,3.16,0,0,0-1.57,2.81q0,2.85,4,3.6l5,.92q7.9,1.44,7.91,7.67a6.86,6.86,0,0,1-3,5.76,12.77,12.77,0,0,1-7.84,2.2Q575.9,170.65,573.72,163.22Z"/></g></g></svg>