<svg xmlns="http://www.w3.org/2000/svg" viewBox="0 0 800 232.17"><defs><style>.cls-1{fill:#035bda;fill-rule:evenodd;}.cls-2{fill:#fff;}</style></defs><title>azure</title><g id="Layer_2" data-name="Layer 2"><g id="svg8159"><path id="path7291" class="cls-1" d="M184.78,35l-44,88.67,77.5,89.83L74.41,229.83l223.22,2.34L184.78,35Z"/><path id="path7293" class="cls-1" d="M176.1,0,75,84.58,0,211.17l63.87-6.42Z"/><path id="text7295" class="cls-2" d="M382,89.52,333.66,208.06H350.1l12.57-33.23h53.44l13.36,33.23h16.34L397.3,89.52Zm7.21,14.38h.35a45.76,45.76,0,0,0,1.94,7.94l19.77,50.51H367.59l19.6-50.51a41.71,41.71,0,0,0,2-7.94ZM763,121.43q-17.67,0-29.62,12.48t-11.87,32.16q0,20.91,10.9,32.49t30,11.49q19.51,0,31.38-8.1V189.22a46,46,0,0,1-28,9.42q-13.53,0-21.27-7.69t-8.09-21.82H800V162q0-19.1-9.67-29.84T763,121.43Zm-64.4.5a22.14,22.14,0,0,0-14.15,5,29.13,29.13,0,0,0-9.4,13.89h-.36V123.41H660.28v84.65h14.41V164.91q0-14.13,6.16-22.32t15.46-8.18q7.13,0,10.9,2.73V123.08A24.93,24.93,0,0,0,698.6,121.93Zm-238.13,1.48V135h48.25l-53.26,68.86v4.21h73.91V196.49H476.64L529.9,127.3v-3.89Zm91.11,0V174q0,36,32.17,36,18.81,0,27.78-15.38h.35v13.39h14.41V123.41H611.88v48.78q0,11.82-6.86,19.17a22.59,22.59,0,0,1-17.31,7.28q-21.8,0-21.8-26.78V123.41Zm211.15,9.43q10.56,0,16.44,6.53t6.06,18.27h-48.6q1.67-11.08,8.79-17.94A24,24,0,0,1,762.73,132.84Z"/></g></g></svg>