<svg xmlns="http://www.w3.org/2000/svg" viewBox="0 0 1310.14 172.08"><defs><style>.a{fill:#b39602;}.b{fill:#020000;}.c{font-size:113px;font-family:Montserrat-Bold, Montserrat;font-weight:700;}.d{letter-spacing:-0.01em;}.e{letter-spacing:-0.02em;}.f{letter-spacing:-0.01em;}.g,.h{fill:#6d6e71;}.h{letter-spacing:-0.01em;}</style></defs><title>ddlogo</title><path class="a" d="M237.44,88.84,196,0H175.09l41.43,88.84L202,120.05l-5.7-2.66-1.6,3.43,5.71,2.66L183,160.63a5.94,5.94,0,0,0,2.88,7.9l6.4,3a6,6,0,0,0,7.91-2.88l17.32-37.15,5.7,2.66,1.6-3.43-5.7-2.66Zm-13.12,0L186.19,7.07h5.32l38.12,81.77-16.89,36.23-4.36-2ZM210.39,139.9l-7.39.49-4.37-6,7.39-.49ZM204.73,152l-7.39.5-4.37-6,7.39-.5Z"/><path class="a" d="M0,88.84,41.42,0H62.35L20.92,88.84l14.55,31.21,5.71-2.66,1.6,3.43-5.71,2.66L54.4,160.63a5.94,5.94,0,0,1-2.88,7.9l-6.4,3a6,6,0,0,1-7.91-2.88L19.89,131.49l-5.71,2.66-1.59-3.43,5.7-2.66Zm13.12,0L51.24,7.07H45.93L7.81,88.84,24.7,125.07l4.36-2ZM27.05,139.9l7.39.49,4.37-6-7.39-.49ZM32.71,152l7.39.5,4.37-6-7.39-.5Z"/><path class="b" d="M170.38,90.85l-45.2,2.05A65.4,65.4,0,0,0,139.8,65.78L171,76.37l8.28-1.69c.9-4.85.89-12-3.09-23-7.67-21.27-47.52-34.1-70.59-15.41-12.1,9.8-14.8,20.81-14.63,29.06-11.93-8-27.66-9-27.66-9l-1.34,6.43c-7.77-2-16.46-1.48-22.22-.71L45,80.75a53.37,53.37,0,0,1,23.39-1l1.18-6.83a44.61,44.61,0,0,1,23.62,6.06l0,.11L63.63,87.62l.56,21.22,25.32-18c-2.54,9.38-4.68,19.3-4.68,19.3,22.34,23.65,64.53,34.74,64.53,34.74,18.56-13.76,30.07-39.7,30.07-39.7-.9-9.37-6.8-20.16-6.8-20.16Z"/><text class="c" transform="translate(237.44 125.07)">D<tspan class="d" x="93.34" y="0">E</tspan><tspan class="e" x="168.03" y="0">V</tspan><tspan x="250.63" y="0">E</tspan><tspan class="f" x="326.45" y="0">L</tspan><tspan x="393.35" y="0">O</tspan><tspan class="d" x="488.72" y="0">P</tspan><tspan x="570.31" y="0">ER</tspan><tspan class="g" x="729.18" y="0">D</tspan><tspan class="h" x="822.52" y="0">O</tspan><tspan class="g" x="916.19" y="0">JO</tspan></text></svg>