<svg xmlns="http://www.w3.org/2000/svg" viewBox="0 0 802.32 665"><defs><style>.cls-1{fill:#1fb4da;}.cls-2{fill:#2f4f6f;}.cls-10,.cls-2,.cls-3,.cls-4,.cls-5,.cls-6,.cls-9{fill-rule:evenodd;}.cls-3{fill:#112a45;}.cls-4{fill:#fff;}.cls-5{fill:#ff3131;}.cls-6{fill:#f9d8bc;}.cls-7{fill:#e88508;}.cls-8{fill:#ffcf00;}.cls-9{fill:#ff0;}.cls-10{fill:#e62c2c;}</style></defs><title>global</title><g id="Layer_2" data-name="Layer 2"><g id="Bussines_Work" data-name="Bussines Work"><g id="Background"><circle id="Background_2" data-name="Background 2" class="cls-1" cx="402.12" cy="332.5" r="332.5"/></g><path id="World_Map" data-name="World Map" class="cls-2" d="M203.78,352.43c-13.46,34.75-2.91,8.13-22.95,27.18-12.16,11.54-2.36,40.08,20.41,42.74,10,1.12-6.27,33.25,1.12,39.15,13,10.48-3.85,105.65,11.53,76.74,17.25-32.45-14.82-42.62,25.38-49.38,14.14-2.42,3-9.43,27.67-18.62.56-.18,61.72-69.85,21.59-88.28-20.23-9.3-42.13-17.24-59.13-30-5.15-3.91-24-3.66-25.62.43ZM187,207.45c-9.8,8.75-36.23-11-26.3-.93.43.19-2.36,21.1,11,33s25.37-6.39,31.76-13.65c1.56-1.74-.74-32.63-16.5-18.43ZM56.82,185c-47.4-3.42-35.68-41.32-55.71,37.16C-7.08,254.1,32.25,239,51.91,211.61c9.62.74.87,14.27,28.05,14.39,2.85,0,20.22,39.27,20.22,44.55,0,31.95,28.48,43.55,49.82,68.49,11.1,13,73.45,19.6,26.55-6.33-19.36-10.73-9.25-45,17.12-6.52,2.48,3.66,35.24,15.51,8.69-5.52-1.93-1.55-2.86-17.12-1.8-20.35,24.13-8.31,20,10,18.17-33.93-.8-19,60.12,3,30.59-29.78-10.11-11.29,3.6-14.21-8.75-24.75-5.77-4.9,17.18-17.31-25.68-51.68-19.17-15.32,48.45-46.71,36.54,11.73-2.17,10.6,8.25-1.93,8.68,19.23.31,19.41,40.45,50.37,24.38,6.82-3-8.19,19.3-15.38,24.76-11.41,14.82,10.79,2.48-11.29,13.33-15.14,5.65-2-3.35-32.14-16.93-28-24.94,7.38-9.31-82.51-45.54-37.78-10.3,12.65,11.67,8.93-28.6,7.63-11.91-.37,7.45,11.16-39.2,8.62-12.29-.68-8,10.36-9.37,14.33-28.23,5.83,22.89,20.16-4.59,37.6-8.07,5.15-26.74-40.58-28-13.22-.13,2.42,32.69,29.53,1.92,30.71-8.07.37-9.49-66.26-47.21-40-14.58,10.11,31,47.64-10.36,29.22-35.18-15.7-3.85,9.92-32.94,4-.93-.19-4,.62-4.9.56ZM476,399.21c-6.57,21.22,11.42,3.1-7.44,24.07-11.54,12.84,33.93,14.4,16.87-20-.49-1-9.24-4.6-9.43-4.1Zm311.8,67.93c-3.84,6.15-15.44,22.09-14.95,28.42-17.93,4.71,16.94,10.6,18.24-4.78.37-4.65,20.41-7.63.5-24.26Zm-22.64-49.63c1.92,8.44,8,22.52,18.05,21.22,1.55-3.72,0-20.41-.86-23-.93-.31-19.48-7.95-17.19,1.73Zm-62.66-7.19c-39.08,24.44-24.44,2.29-25.93,22.64-.12,1.18-54.59,33.38,10.18,29,14.08-1,28.1-2.85,34.12,16.07,4,12.65,51.8,15.14,18.48-36.67-4.34-6.76,19.85-31.45-15-31.45-11.23,0-3.47-18-17.43-3.1-.81.87-.81,1.18-4.47,3.54ZM693.32,351c29.28,0,19.54,15.57,39,16.31,4.16.13,1,10.67,28,10.67,0,16.14-36.29,6.58-36.66,6.4-23.89-14.4-3.48-4-24.88-8.5-4.09-11.85,21.53.06-1.8-17.5-2.23-1.67-4.59-7.38-3.66-7.38Zm-27,40.94c22.59-.43,5.9-3.72,34.25-1.36,1.36.12,14.21-4.35-.87,2.67-5.09,2.35-17.74-3.05-30.83,4.71-14.39,8.56-16.75-5.71-2.55-6ZM644.68,370.3c25.13,11.6,28.54,20.16,34.75-10.54,2.1-10.24-40.58,7.87-34.75,10.54Zm-37.09,5.77c21.89,11-1.68,8.81,22.64,20.85,1.49.8,31.2,20.84,17.06-5.4-1.18-2.3-8.5-1.37-18.18-20.91-6.51-13.09-20.22,6.14-21.52,5.46Zm40.94-58.31c4.47,21.09-5.33-1.06-3.78,17.86.24,2.79-54.47,25.31-5.84,19.36,1.62-.25,22.9-4.22,23.76-5.9,10.92-22-13.83-29.77-14.14-31.32ZM342.06,288.35c-5.14,12.59-7.94,13.83-11.54,28C320.66,354.61,373,333.45,382.2,355c5.15,11.91,4.59,4.9,9,22.08,6.39,24.69-8,21.16,9.74,32.51,8.56,5.46-15.32,20.85,19.42,41.44,9.61,5.65,2.85-22.89,29.21-31.32,5.16-1.62,1.74-29,21.66-46.84,1.11-1,31.26-112.66,60.55-47.84,26,57.51,23.69-40.32,55.77,5,.74,1,3.41,44.42,16.5,18.18,7.32-14.64-9.93-7,14.58-15.76,12.53-4.47-9.31-23.33,14.45-31.58,18.61-6.39,3.85-20,22.27-31.45.25-.19,28.67-42.93,17.25,10.3-9.49,44.42,28,21.77,15.7-18.05-4-13,12.16-7.08,1.36-39.09-8.69-25.56,32.32-32,34.93-1.92,2.66,30.83,21.21,19.1,29.71-10.55,1.68-6,57.89,2.73,40-41.56-22.33-55.28-13.4,17.92-66.51,2.48-34.68-10,24.94-20.6-64-13.65-23.82,1.86,2-34.18-86.23-15.63-18.61,3.9,3.6,10.6-49.57,14.51-3.41.25-23.26,21.1-22.21-2.79.19-5.34,10.67-2,10.67-15.45C477.68,138,499.76,188,444,170.11c-20.35-6.52-27.48,1.86-23.76,19.91,4.66,22.89-34.12,22.46-15.51,7.88,6.83-5.4-23.39-49.13-20.35-15.2.07.31,19.11,38.15-4.71,46.65-20.16,7.14,8.25,22.58-27.05,28.11-6.33,1-2.91,12.22-10.55,30.89Zm269.87,0C572.6,300.76,629.24,302.18,618,291c-2.48-2.49-7-2.3-6.08-2.61ZM351.25,180c-7,24.51-32,42.19-3.66,39,12.15-1.43-4.22,20.53,16.31-10.79,8.69-13.16-1.67-2.86-4.4-24.82-.13-1-6.33-10.17-8.25-3.35Z"/><g id="People"><path class="cls-3" d="M207.63,544.32h0a74.45,74.45,0,0,1,74.2,72.15H133.43a74.45,74.45,0,0,1,74.2-72.15Z"/><path class="cls-4" d="M207.63,544.32h0a73.4,73.4,0,0,1,29.78,6.26l-29.78,65.89-29.78-65.89a73.62,73.62,0,0,1,29.78-6.26Z"/><polygon class="cls-5" points="207.63 544.32 194.66 561.75 207.63 616.47 220.66 561.75 207.63 544.32"/><path class="cls-6" d="M207.63,541a46,46,0,1,0-46-46,46.07,46.07,0,0,0,46,46Z"/><path class="cls-3" d="M593.81,449.83h0a87,87,0,0,1,86.67,84.25H507.08c1.37-46.59,39.83-84.25,86.73-84.25Z"/><path class="cls-4" d="M593.81,449.83h0a86,86,0,0,1,34.81,7.32l-34.81,76.93L559,457.15a86,86,0,0,1,34.8-7.32Z"/><polygon class="cls-5" points="593.81 449.83 578.61 470.18 593.81 534.08 609.01 470.18 593.81 449.83"/><path class="cls-6" d="M593.81,445.86a53.66,53.66,0,1,0-53.72-53.66,53.77,53.77,0,0,0,53.72,53.66Z"/><path class="cls-3" d="M154,139.89h0a52.31,52.31,0,0,1,52.11,50.63H102A52.25,52.25,0,0,1,154,139.89Z"/><path class="cls-4" d="M154,139.89h0a51.24,51.24,0,0,1,20.91,4.41L154,190.52,133.12,144.3A51.63,51.63,0,0,1,154,139.89Z"/><polygon class="cls-5" points="154.03 139.89 144.91 152.12 154.03 190.52 163.15 152.12 154.03 139.89"/><path class="cls-6" d="M154,137.54a32.26,32.26,0,1,0-32.26-32.26A32.32,32.32,0,0,0,154,137.54Z"/></g><g id="Lines"><path class="cls-7" d="M691.46,496.24a5.49,5.49,0,1,1,0-11H791.4V309.51H671.73a5.43,5.43,0,0,1-5.46-5.46V229.79H511.43V320.3a5.47,5.47,0,0,1-5.46,5.46H347.59a5.46,5.46,0,0,1,0-10.92H500.51V224.33a5.43,5.43,0,0,1,5.46-5.46H671.73a5.43,5.43,0,0,1,5.46,5.46v74.26H796.86a5.42,5.42,0,0,1,5.46,5.46V490.78a5.47,5.47,0,0,1-5.46,5.46Z"/><path class="cls-8" d="M118.05,568.14a5.46,5.46,0,1,1,0,10.92H41.43A5.43,5.43,0,0,1,36,573.6V416a5.46,5.46,0,0,1,5.46-5.45h300.7V224.39h-64.9a5.46,5.46,0,0,1-5.45-5.46V115.45H204.46a5.46,5.46,0,0,1,0-10.92h72.77a5.42,5.42,0,0,1,5.46,5.46V213.47h64.9a5.49,5.49,0,0,1,5.52,5.46V416a5.49,5.49,0,0,1-5.52,5.46H46.89V568.14Z"/></g><g id="Circles"><path class="cls-9" d="M198.45,101.55a8.94,8.94,0,1,1-9.25,8.94,9.09,9.09,0,0,1,9.25-8.94Zm0-8.62c10.05,0,18.17,7.82,18.17,17.56S208.5,128,198.45,128s-18.12-7.81-18.12-17.49,8.13-17.56,18.12-17.56Zm0-3.72c12.16,0,22,9.55,22,21.28s-9.8,21.22-22,21.22-22-9.5-22-21.22,9.86-21.28,22-21.28Z"/><path class="cls-9" d="M695.8,470.49a15.73,15.73,0,1,1-16.25,15.7,16,16,0,0,1,16.25-15.7Zm0-15.2c17.68,0,32,13.84,32,30.9s-14.33,30.95-32,30.95-31.95-13.83-31.95-30.95,14.27-30.9,31.95-30.9Zm0-6.51c21.41,0,38.71,16.75,38.71,37.41s-17.3,37.47-38.71,37.47-38.71-16.75-38.71-37.47,17.37-37.41,38.71-37.41Z"/><path class="cls-9" d="M121.4,560.63a12.6,12.6,0,1,1-13,12.6,12.84,12.84,0,0,1,13-12.6Zm0-12.16c14.2,0,25.68,11,25.68,24.76S135.6,598,121.4,598s-25.63-11-25.63-24.75,11.48-24.76,25.63-24.76Zm0-5.21c17.18,0,31.08,13.4,31.08,30s-13.9,30-31.08,30-31-13.4-31-30,13.89-30,31-30Z"/></g><g id="Thumb"><path class="cls-4" d="M536.86,98.58a55.71,55.71,0,1,1-55.71,55.71,55.71,55.71,0,0,1,55.71-55.71Zm0-7.2A62.91,62.91,0,1,1,474,154.29a62.92,62.92,0,0,1,62.9-62.91Z"/><path class="cls-6" d="M545.49,111.23c-.87,7,.74,15.14,2.54,21s2.85,6.46,3.35,9.25h3.29v34.24h-4.22a6.77,6.77,0,0,1-4.65,2.3l-14.71.93a2,2,0,0,1-.62.06c-7.69.75-16.13.87-24.75.87a6.29,6.29,0,0,1-6.27-6.27h0a6.29,6.29,0,0,1,6.27-6.26,6.35,6.35,0,0,1-6.27-6.33h0a6.29,6.29,0,0,1,6.27-6.27,6.34,6.34,0,0,1-6.27-6.32h0a6.33,6.33,0,0,1,6.27-6.27,6.34,6.34,0,0,1-6.27-6.33h0a6.33,6.33,0,0,1,6.27-6.26h28.35c-.56-5.77-1.61-17.68,1.74-22.52,2.73-4,6.57-7.14,9-7.32,2.8.62,1.37,6.51.69,11.47Z"/><path class="cls-4" d="M567.07,140.2H555.16a1.91,1.91,0,0,0-1.86,1.87v33.12a1.85,1.85,0,0,0,1.86,1.8h11.91a1.85,1.85,0,0,0,1.87-1.8V142.07a1.91,1.91,0,0,0-1.87-1.87Z"/><path class="cls-10" d="M577.12,139.09H559.63a3.27,3.27,0,0,0-3.29,3.29v32.5a3.31,3.31,0,0,0,3.29,3.29h17.49Z"/><path class="cls-4" d="M536.86,81.83a72.49,72.49,0,1,1-72.46,72.46,72.47,72.47,0,0,1,72.46-72.46Zm0-3a75.5,75.5,0,1,1-75.43,75.5,75.51,75.51,0,0,1,75.43-75.5Z"/></g><g id="Check"><path class="cls-4" d="M264.83,315.77a55.71,55.71,0,1,1-55.77,55.71,55.71,55.71,0,0,1,55.77-55.71Zm0-7.2a62.91,62.91,0,1,1-62.91,62.91,62.91,62.91,0,0,1,62.91-62.91Z"/><path class="cls-4" d="M264.83,299a72.49,72.49,0,1,1-72.52,72.52A72.48,72.48,0,0,1,264.83,299Zm0-3a75.5,75.5,0,1,1-75.5,75.5,75.45,75.45,0,0,1,75.5-75.5Z"/><polygon class="cls-5" points="259 381.41 221.77 359.51 263.34 410.57 342.13 292.26 259 381.41"/></g></g></g></svg>